  0
SECTION
  2
HEADER
  9
$ACADVER
  1
AC1014
  9
$HANDSEED
  5
FFFF
  9
$MEASUREMENT
 70
     1
  0
ENDSEC
  0
SECTION
  2
TABLES
  0
TABLE
  2
VPORT
  5
8
330
0
100
AcDbSymbolTable
 70
     4
  0
VPORT
  5
2E
330
8
100
AcDbSymbolTableRecord
100
AcDbViewportTableRecord
  2
*ACTIVE
 70
     0
 10
0.0
 20
0.0
 11
1.0
 21
1.0
 12
210.0
 22
148.5
 13
0.0
 23
0.0
 14
10.0
 24
10.0
 15
10.0
 25
10.0
 16
0.0
 26
0.0
 36
1.0
 17
0.0
 27
0.0
 37
0.0
 40
341.0
 41
1.24
 42
50.0
 43
0.0
 44
0.0
 50
0.0
 51
0.0
 71
     0
 72
   100
 73
     1
 74
     3
 75
     0
 76
     0
 77
     0
 78
     0
  0
ENDTAB
  0
TABLE
  2
LTYPE
  5
5
330
0
100
AcDbSymbolTable
 70
     1
  0
LTYPE
  5
14
330
5
100
AcDbSymbolTableRecord
100
AcDbLinetypeTableRecord
  2
BYBLOCK
 70
     0
  3

 72
    65
 73
     0
 40
0.0
  0
LTYPE
  5
15
330
5
100
AcDbSymbolTableRecord
100
AcDbLinetypeTableRecord
  2
BYLAYER
 70
     0
  3

 72
    65
 73
     0
 40
0.0
  0
LTYPE
  5
16
330
5
100
AcDbSymbolTableRecord
100
AcDbLinetypeTableRecord
  2
CONTINUOUS
 70
     0
  3
Solid line
 72
    65
 73
     0
 40
0.0
  0
ENDTAB
  0
TABLE
  2
LAYER
  5
2
100
AcDbSymbolTable
 70
1
  0
LAYER
  5
50
100
AcDbSymbolTableRecord
100
AcDbLayerTableRecord
  2
0
 70
0
  6
CONTINUOUS
  0
ENDTAB
  0
TABLE
  2
STYLE
  5
3
330
0
100
AcDbSymbolTable
 70
     1
  0
STYLE
  5
11
330
3
100
AcDbSymbolTableRecord
100
AcDbTextStyleTableRecord
  2
STANDARD
 70
     0
 40
0.0
 41
1.0
 50
0.0
 71
     0
 42
2.5
  3
txt
  4

  0
ENDTAB
  0
TABLE
  2
VIEW
  5
6
330
0
100
AcDbSymbolTable
 70
     0
  0
ENDTAB
  0
TABLE
  2
UCS
  5
7
330
0
100
AcDbSymbolTable
 70
     0
  0
ENDTAB
  0
TABLE
  2
APPID
  5
9
330
0
100
AcDbSymbolTable
 70
     2
  0
APPID
  5
12
330
9
100
AcDbSymbolTableRecord
100
AcDbRegAppTableRecord
  2
ACAD
 70
     0
  0
ENDTAB
  0
TABLE
  2
DIMSTYLE
  5
A
330
0
100
AcDbSymbolTable
 70
     1
  0
DIMSTYLE
105
27
330
A
100
AcDbSymbolTableRecord
100
AcDbDimStyleTableRecord
  2
ISO-25
 70
     0
  3

  4

  5

  6

  7

 40
1.0
 41
2.5
 42
0.625
 43
3.75
 44
1.25
 45
0.0
 46
0.0
 47
0.0
 48
0.0
140
2.5
141
2.5
142
0.0
143
0.03937007874016
144
1.0
145
0.0
146
1.0
147
0.625
 71
     0
 72
     0
 73
     0
 74
     0
 75
     0
 76
     0
 77
     1
 78
     8
170
     0
171
     3
172
     1
173
     0
174
     0
175
     0
176
     0
177
     0
178
     0
270
     2
271
     2
272
     2
273
     2
274
     3
340
11
275
     0
280
     0
281
     0
282
     0
283
     0
284
     8
285
     0
286
     0
287
     3
288
     0
  0
ENDTAB
  0
TABLE
  2
BLOCK_RECORD
  5
1
330
0
100
AcDbSymbolTable
 70
     1
  0
BLOCK_RECORD
  5
1F
330
1
100
AcDbSymbolTableRecord
100
AcDbBlockTableRecord
  2
*MODEL_SPACE
  0
BLOCK_RECORD
  5
1B
330
1
100
AcDbSymbolTableRecord
100
AcDbBlockTableRecord
  2
*PAPER_SPACE
  0
ENDTAB
  0
ENDSEC
  0
SECTION
  2
BLOCKS
  0
BLOCK
  5
20
330
1F
100
AcDbEntity
  8
0
100
AcDbBlockBegin
  2
*MODEL_SPACE
 70
     0
 10
0.0
 20
0.0
 30
0.0
  3
*MODEL_SPACE
  1

  0
ENDBLK
  5
21
330
1F
100
AcDbEntity
  8
0
100
AcDbBlockEnd
  0
BLOCK
  5
1C
330
1B
100
AcDbEntity
 67
     1
  8
0
100
AcDbBlockBegin
  2
*PAPER_SPACE
  1

  0
ENDBLK
  5
1D
330
1B
100
AcDbEntity
 67
     1
  8
0
100
AcDbBlockEnd
  0
ENDSEC
  0
SECTION
  2
ENTITIES
  0
LWPOLYLINE
  5
100
100
AcDbEntity
  8
0
 62
7
100
AcDbPolyline
 90
279
 70
0
 10
80.004618
 20
6.469338
 30
0.0
 10
82.851688
 20
6.398138
 30
0.0
 10
86.125828
 20
3.978216
 30
0.0
 10
87.407008
 20
1.344787
 30
0.0
 10
86.339358
 20
9.173916
 30
0.0
 10
86.552888
 20
13.586698
 30
0.0
 10
87.762898
 20
17.501266
 30
0.0
 10
90.254078
 20
22.198748
 30
0.0
 10
91.250558
 20
25.686268
 30
0.0
 10
90.752318
 20
28.248528
 30
0.0
 10
88.189948
 20
29.956707
 30
0.0
 10
86.481708
 20
34.369488
 30
0.0
 10
87.193478
 20
40.775138
 30
0.0
 10
87.620538
 20
43.550927
 30
0.0
 10
89.115258
 20
51.308877
 30
0.0
 10
93.029978
 20
45.970838
 30
0.0
 10
94.951758
 20
39.707528
 30
0.0
 10
95.449998
 20
33.800086
 30
0.0
 10
93.599388
 20
28.817916
 30
0.0
 10
93.385868
 20
25.615098
 30
0.0
 10
96.019408
 20
22.412266
 30
0.0
 10
98.937658
 20
20.205877
 30
0.0
 10
98.581768
 20
16.931878
 30
0.0
 10
99.862958
 20
20.348217
 30
0.0
 10
98.795308
 20
25.757438
 30
0.0
 10
95.592338
 20
30.810787
 30
0.0
 10
96.446468
 20
33.586568
 30
0.0
 10
96.944708
 20
40.348098
 30
0.0
 10
94.809398
 20
48.817796
 30
0.0
 10
86.624058
 20
57.999237
 30
0.0
 10
88.118778
 20
54.013487
 30
0.0
 10
88.688188
 20
51.522396
 30
0.0
 10
86.410528
 20
57.856886
 30
0.0
 10
81.926398
 20
61.486757
 30
0.0
 10
73.100458
 20
62.625537
 30
0.0
 10
64.488058
 20
62.554337
 30
0.0
 10
52.601538
 20
60.917339
 30
0.0
 10
48.686809
 20
60.632640
 30
0.0
 10
39.433819
 20
65.970688
 30
0.0
 10
30.750239
 20
76.219733
 30
0.0
 10
27.760819
 20
78.639643
 30
0.0
 10
23.276679
 20
76.504423
 30
0.0
 10
28.543759
 20
79.778433
 30
0.0
 10
31.177309
 20
81.628953
 30
0.0
 10
36.515569
 20
80.205473
 30
0.0
 10
39.149109
 20
77.429683
 30
0.0
 10
37.227339
 20
78.354943
 30
0.0
 10
35.305559
 20
78.354943
 30
0.0
 10
38.793229
 20
76.219733
 30
0.0
 10
39.860879
 20
74.725083
 30
0.0
 10
36.444389
 20
76.006213
 30
0.0
 10
40.857359
 20
72.020473
 30
0.0
 10
42.138539
 20
69.102343
 30
0.0
 10
39.718519
 20
70.810513
 30
0.0
 10
40.786179
 20
67.394159
 30
0.0
 10
43.277359
 20
65.757169
 30
0.0
 10
41.497949
 20
65.757169
 30
0.0
 10
44.558549
 20
63.266080
 30
0.0
 10
36.729099
 20
69.173513
 30
0.0
 10
28.259059
 20
79.066683
 30
0.0
 10
33.739669
 20
84.475903
 30
0.0
 10
36.586739
 20
89.529253
 30
0.0
 10
36.515539
 20
93.301473
 30
0.0
 10
33.027879
 20
92.305043
 30
0.0
 10
29.397859
 20
87.536393
 30
0.0
 10
25.127249
 20
80.561343
 30
0.0
 10
22.707239
 20
77.785553
 30
0.0
 10
27.547259
 20
80.063123
 30
0.0
 10
32.743169
 20
86.112903
 30
0.0
 10
35.874949
 20
92.589733
 30
0.0
 10
36.586719
 20
93.657353
 30
0.0
 10
35.020829
 20
95.080823
 30
0.0
 10
31.960229
 20
94.582603
 30
0.0
 10
24.913719
 20
91.023903
 30
0.0
 10
19.290749
 20
83.692993
 30
0.0
 10
18.294269
 20
81.130733
 30
0.0
 10
15.660729
 20
79.991953
 30
0.0
 10
14.664259
 20
77.500863
 30
0.0
 10
15.803079
 20
75.650343
 30
0.0
 10
14.664259
 20
76.789123
 30
0.0
 10
15.020139
 20
74.653903
 30
0.0
 10
17.440149
 20
73.657473
 30
0.0
 10
17.938389
 20
71.166393
 30
0.0
 10
16.087789
 20
69.458213
 30
0.0
 10
13.667779
 20
70.241133
 30
0.0
 10
13.383069
 20
73.088083
 30
0.0
 10
14.948959
 20
74.084513
 30
0.0
 10
17.226619
 20
73.515123
 30
0.0
 10
17.867209
 20
69.600563
 30
0.0
 10
15.020139
 20
67.892378
 30
0.0
 10
12.030709
 20
68.604113
 30
0.0
 10
11.034239
 20
71.095213
 30
0.0
 10
12.386599
 20
73.870993
 30
0.0
 10
14.379549
 20
74.582733
 30
0.0
 10
14.664259
 20
76.575603
 30
0.0
 10
12.457769
 20
76.219733
 30
0.0
 10
13.027189
 20
77.643203
 30
0.0
 10
14.735429
 20
77.714403
 30
0.0
 10
17.084269
 20
81.130763
 30
0.0
 10
19.148399
 20
83.550673
 30
0.0
 10
21.568409
 20
87.109373
 30
0.0
 10
22.351349
 20
92.589763
 30
0.0
 10
21.497229
 20
96.433153
 30
0.0
 10
20.073689
 20
97.144893
 30
0.0
 10
18.934869
 20
96.290803
 30
0.0
 10
16.372499
 20
92.732113
 30
0.0
 10
13.881309
 20
88.604023
 30
0.0
 10
13.810109
 20
86.184103
 30
0.0
 10
16.657179
 20
85.116493
 30
0.0
 10
14.877759
 20
86.895853
 30
0.0
 10
18.507779
 20
86.397633
 30
0.0
 10
20.144849
 20
85.187673
 30
0.0
 10
21.212499
 20
88.746373
 30
0.0
 10
21.283699
 20
92.732113
 30
0.0
 10
20.998989
 20
94.440283
 30
0.0
 10
19.860159
 20
95.080853
 30
0.0
 10
17.440149
 20
92.660933
 30
0.0
 10
19.860159
 20
94.582633
 30
0.0
 10
20.856639
 20
94.084413
 30
0.0
 10
21.212529
 20
87.963463
 30
0.0
 10
19.788989
 20
85.045323
 30
0.0
 10
17.867209
 20
86.255283
 30
0.0
 10
14.664259
 20
86.895853
 30
0.0
 10
16.941909
 20
84.974153
 30
0.0
 10
12.742479
 20
85.543543
 30
0.0
 10
15.162489
 20
84.404753
 30
0.0
 10
11.105409
 20
84.404753
 30
0.0
 10
7.475389
 20
82.198373
 30
0.0
 10
6.478919
 20
79.849623
 30
0.0
 10
9.610699
 20
81.984853
 30
0.0
 10
13.311899
 20
82.483063
 30
0.0
 10
10.180119
 20
80.561363
 30
0.0
 10
7.688929
 20
77.785583
 30
0.0
 10
12.528949
 20
80.205493
 30
0.0
 10
11.318939
 20
77.429713
 30
0.0
 10
11.318939
 20
76.717973
 30
0.0
 10
13.667779
 20
79.707283
 30
0.0
 10
16.016619
 20
80.419023
 30
0.0
 10
13.810129
 20
79.280233
 30
0.0
 10
11.461299
 20
76.646803
 30
0.0
 10
12.315419
 20
79.849623
 30
0.0
 10
9.468349
 20
77.714403
 30
0.0
 10
7.973629
 20
71.949323
 30
0.0
 10
7.048329
 20
69.173533
 30
0.0
 10
4.913029
 20
68.034749
 30
0.0
 10
2.208309
 20
66.397748
 30
0.0
 10
0.144179
 20
64.191358
 30
0.0
 10
0.144179
 20
61.344399
 30
0.0
 10
0.357709
 20
57.501009
 30
0.0
 10
0.144179
 20
56.291048
 30
0.0
 10
1.710069
 20
55.081087
 30
0.0
 10
4.628319
 20
55.223438
 30
0.0
 10
7.688929
 20
56.433399
 30
0.0
 10
9.539519
 20
58.283929
 30
0.0
 10
9.753049
 20
59.138010
 30
0.0
 10
10.535999
 20
58.710970
 30
0.0
 10
8.543049
 20
59.280358
 30
0.0
 10
9.610699
 20
58.853318
 30
0.0
 10
8.898929
 20
57.073969
 30
0.0
 10
5.340089
 20
55.579308
 30
0.0
 10
3.845369
 20
54.867569
 30
0.0
 10
5.268909
 20
53.230568
 30
0.0
 10
8.898929
 20
52.732349
 30
0.0
 10
11.318939
 20
54.511699
 30
0.0
 10
12.315419
 20
56.362229
 30
0.0
 10
11.105409
 20
61.415570
 30
0.0
 10
8.756579
 20
65.187798
 30
0.0
 10
4.841849
 20
67.892398
 30
0.0
 10
6.265389
 20
64.547228
 30
0.0
 10
6.550089
 20
63.194919
 30
0.0
 10
3.204779
 20
59.636228
 30
0.0
 10
2.777719
 20
60.917359
 30
0.0
 10
3.275959
 20
63.266100
 30
0.0
 10
4.984199
 20
63.977839
 30
0.0
 10
4.770669
 20
62.483190
 30
0.0
 10
2.991249
 20
61.273229
 30
0.0
 10
3.418309
 20
59.920920
 30
0.0
 10
6.478919
 20
63.123749
 30
0.0
 10
5.197739
 20
67.607709
 30
0.0
 10
8.970109
 20
64.831928
 30
0.0
 10
11.176589
 20
60.632659
 30
0.0
 10
12.600129
 20
56.006359
 30
0.0
 10
13.454249
 20
57.216309
 30
0.0
 10
20.429579
 20
58.568618
 30
0.0
 10
24.913719
 20
60.561489
 30
0.0
 10
27.049029
 20
64.120188
 30
0.0
 10
27.618439
 20
68.888843
 30
0.0
 10
26.550789
 20
62.412009
 30
0.0
 10
24.557839
 20
59.849749
 30
0.0
 10
29.326679
 20
48.817789
 30
0.0
 10
35.447889
 20
40.703958
 30
0.0
 10
36.586719
 20
38.853438
 30
0.0
 10
39.860849
 20
36.789389
 30
0.0
 10
38.437319
 20
41.985089
 30
0.0
 10
40.786149
 20
35.579439
 30
0.0
 10
41.355569
 20
31.166650
 30
0.0
 10
36.800249
 20
38.426398
 30
0.0
 10
41.426749
 20
30.810780
 30
0.0
 10
40.786149
 20
26.611530
 30
0.0
 10
39.362619
 20
23.479869
 30
0.0
 10
40.003209
 20
20.490569
 30
0.0
 10
41.284389
 20
18.355350
 30
0.0
 10
40.359089
 20
19.067090
 30
0.0
 10
40.572619
 20
13.871390
 30
0.0
 10
39.220269
 20
9.529779
 30
0.0
 10
38.935559
 20
7.750429
 30
0.0
 10
36.871429
 20
7.109868
 30
0.0
 10
34.024359
 20
5.259338
 30
0.0
 10
32.458469
 20
1.344780
 30
0.0
 10
34.736119
 20
0.704210
 30
0.0
 10
40.216739
 20
0.846559
 30
0.0
 10
46.053239
 20
1.060080
 30
0.0
 10
46.266769
 20
6.469298
 30
0.0
 10
39.006729
 20
7.750429
 30
0.0
 10
46.124419
 20
6.611649
 30
0.0
 10
45.626179
 20
15.650740
 30
0.0
 10
47.476779
 20
20.988780
 30
0.0
 10
47.547979
 20
23.551039
 30
0.0
 10
47.547979
 20
27.394440
 30
0.0
 10
50.608578
 20
33.301869
 30
0.0
 10
53.170958
 20
37.785829
 30
0.0
 10
53.313288
 20
41.700389
 30
0.0
 10
51.106818
 20
33.515398
 30
0.0
 10
50.822108
 20
29.387300
 30
0.0
 10
51.249178
 20
26.255650
 30
0.0
 10
53.099768
 20
23.408688
 30
0.0
 10
52.672708
 20
18.782390
 30
0.0
 10
55.163908
 20
10.668559
 30
0.0
 10
56.231548
 20
7.536908
 30
0.0
 10
55.875658
 20
1.771820
 30
0.0
 10
48.544449
 20
1.629469
 30
0.0
 10
46.693859
 20
1.771820
 30
0.0
 10
46.266799
 20
6.753998
 30
0.0
 10
48.686809
 20
8.319829
 30
0.0
 10
49.185048
 20
11.664998
 30
0.0
 10
46.693859
 20
18.426520
 30
0.0
 10
49.327398
 20
10.810910
 30
0.0
 10
49.042688
 20
8.390999
 30
0.0
 10
55.590958
 20
7.892778
 30
0.0
 10
52.530348
 20
18.568869
 30
0.0
 10
53.028588
 20
23.551039
 30
0.0
 10
50.750938
 20
27.323259
 30
0.0
 10
50.466228
 20
33.301869
 30
0.0
 10
52.672708
 20
36.362349
 30
0.0
 10
64.915118
 20
34.511830
 30
0.0
 10
75.022228
 20
34.938870
 30
0.0
 10
70.965158
 20
34.227130
 30
0.0
 10
73.954578
 20
29.031430
 30
0.0
 10
74.310478
 20
24.618649
 30
0.0
 10
71.748108
 20
13.444350
 30
0.0
 10
68.687498
 20
8.889220
 30
0.0
 10
66.908088
 20
6.611649
 30
0.0
 10
64.132188
 20
5.045819
 30
0.0
 10
63.206878
 20
2.198868
 30
0.0
 10
72.388688
 20
1.415950
 30
0.0
 10
75.093408
 20
2.412389
 30
0.0
 10
74.595178
 20
7.394559
 30
0.0
 10
69.043378
 20
8.746869
 30
0.0
 10
74.452818
 20
7.608078
 30
0.0
 10
77.157548
 20
16.220128
 30
0.0
 10
82.282278
 20
24.547478
 30
0.0
 10
81.214638
 20
28.889090
 30
0.0
 10
75.022228
 20
35.365910
 30
0.0
 10
71.463398
 20
41.913919
 30
0.0
 10
71.890448
 20
47.607829
 30
0.0
 10
71.890448
 20
41.771570
 30
0.0
 10
74.879888
 20
35.010040
 30
0.0
 10
82.638158
 20
27.679129
 30
0.0
 10
83.563468
 20
25.401569
 30
0.0
 10
81.143448
 20
29.031430
 30
0.0
 10
82.780518
 20
23.551039
 30
0.0
 10
82.566988
 20
14.227260
 30
0.0
 10
80.431688
 20
8.035129
 30
0.0
 10
79.364028
 20
5.544040
 30
0.0
 10
76.374598
 20
3.551169
 30
0.0
 10
74.452818
 20
1.273609
 30
0.0
 10
74.737528
 20
0.134819
 30
0.0
 10
86.481708
 20
0.419518
 30
0.0
 10
87.335828
 20
0.917729
 30
0.0
  0
ENDSEC
  0
SECTION
  2
OBJECTS
  0
DICTIONARY
  5
C
330
0
100
AcDbDictionary
  3
ACAD_GROUP
350
D
  3
ACAD_MLINESTYLE
350
17
  0
DICTIONARY
  5
D
330
C
100
AcDbDictionary
  0
DICTIONARY
  5
1A
330
C
100
AcDbDictionary
  0
DICTIONARY
  5
17
330
C
100
AcDbDictionary
  3
STANDARD
350
18
  0
DICTIONARY
  5
19
330
C
100
AcDbDictionary
  0
ENDSEC
  0
EOF
