  0
SECTION
  2
HEADER
  9
$ACADVER
  1
AC1014
  9
$HANDSEED
  5
FFFF
  9
$MEASUREMENT
 70
     1
  0
ENDSEC
  0
SECTION
  2
TABLES
  0
TABLE
  2
VPORT
  5
8
330
0
100
AcDbSymbolTable
 70
     4
  0
VPORT
  5
2E
330
8
100
AcDbSymbolTableRecord
100
AcDbViewportTableRecord
  2
*ACTIVE
 70
     0
 10
0.0
 20
0.0
 11
1.0
 21
1.0
 12
210.0
 22
148.5
 13
0.0
 23
0.0
 14
10.0
 24
10.0
 15
10.0
 25
10.0
 16
0.0
 26
0.0
 36
1.0
 17
0.0
 27
0.0
 37
0.0
 40
341.0
 41
1.24
 42
50.0
 43
0.0
 44
0.0
 50
0.0
 51
0.0
 71
     0
 72
   100
 73
     1
 74
     3
 75
     0
 76
     0
 77
     0
 78
     0
  0
ENDTAB
  0
TABLE
  2
LTYPE
  5
5
330
0
100
AcDbSymbolTable
 70
     1
  0
LTYPE
  5
14
330
5
100
AcDbSymbolTableRecord
100
AcDbLinetypeTableRecord
  2
BYBLOCK
 70
     0
  3

 72
    65
 73
     0
 40
0.0
  0
LTYPE
  5
15
330
5
100
AcDbSymbolTableRecord
100
AcDbLinetypeTableRecord
  2
BYLAYER
 70
     0
  3

 72
    65
 73
     0
 40
0.0
  0
LTYPE
  5
16
330
5
100
AcDbSymbolTableRecord
100
AcDbLinetypeTableRecord
  2
CONTINUOUS
 70
     0
  3
Solid line
 72
    65
 73
     0
 40
0.0
  0
ENDTAB
  0
TABLE
  2
LAYER
  5
2
100
AcDbSymbolTable
 70
1
  0
LAYER
  5
50
100
AcDbSymbolTableRecord
100
AcDbLayerTableRecord
  2
0
 70
0
  6
CONTINUOUS
  0
ENDTAB
  0
TABLE
  2
STYLE
  5
3
330
0
100
AcDbSymbolTable
 70
     1
  0
STYLE
  5
11
330
3
100
AcDbSymbolTableRecord
100
AcDbTextStyleTableRecord
  2
STANDARD
 70
     0
 40
0.0
 41
1.0
 50
0.0
 71
     0
 42
2.5
  3
txt
  4

  0
ENDTAB
  0
TABLE
  2
VIEW
  5
6
330
0
100
AcDbSymbolTable
 70
     0
  0
ENDTAB
  0
TABLE
  2
UCS
  5
7
330
0
100
AcDbSymbolTable
 70
     0
  0
ENDTAB
  0
TABLE
  2
APPID
  5
9
330
0
100
AcDbSymbolTable
 70
     2
  0
APPID
  5
12
330
9
100
AcDbSymbolTableRecord
100
AcDbRegAppTableRecord
  2
ACAD
 70
     0
  0
ENDTAB
  0
TABLE
  2
DIMSTYLE
  5
A
330
0
100
AcDbSymbolTable
 70
     1
  0
DIMSTYLE
105
27
330
A
100
AcDbSymbolTableRecord
100
AcDbDimStyleTableRecord
  2
ISO-25
 70
     0
  3

  4

  5

  6

  7

 40
1.0
 41
2.5
 42
0.625
 43
3.75
 44
1.25
 45
0.0
 46
0.0
 47
0.0
 48
0.0
140
2.5
141
2.5
142
0.0
143
0.03937007874016
144
1.0
145
0.0
146
1.0
147
0.625
 71
     0
 72
     0
 73
     0
 74
     0
 75
     0
 76
     0
 77
     1
 78
     8
170
     0
171
     3
172
     1
173
     0
174
     0
175
     0
176
     0
177
     0
178
     0
270
     2
271
     2
272
     2
273
     2
274
     3
340
11
275
     0
280
     0
281
     0
282
     0
283
     0
284
     8
285
     0
286
     0
287
     3
288
     0
  0
ENDTAB
  0
TABLE
  2
BLOCK_RECORD
  5
1
330
0
100
AcDbSymbolTable
 70
     1
  0
BLOCK_RECORD
  5
1F
330
1
100
AcDbSymbolTableRecord
100
AcDbBlockTableRecord
  2
*MODEL_SPACE
  0
BLOCK_RECORD
  5
1B
330
1
100
AcDbSymbolTableRecord
100
AcDbBlockTableRecord
  2
*PAPER_SPACE
  0
ENDTAB
  0
ENDSEC
  0
SECTION
  2
BLOCKS
  0
BLOCK
  5
20
330
1F
100
AcDbEntity
  8
0
100
AcDbBlockBegin
  2
*MODEL_SPACE
 70
     0
 10
0.0
 20
0.0
 30
0.0
  3
*MODEL_SPACE
  1

  0
ENDBLK
  5
21
330
1F
100
AcDbEntity
  8
0
100
AcDbBlockEnd
  0
BLOCK
  5
1C
330
1B
100
AcDbEntity
 67
     1
  8
0
100
AcDbBlockBegin
  2
*PAPER_SPACE
  1

  0
ENDBLK
  5
1D
330
1B
100
AcDbEntity
 67
     1
  8
0
100
AcDbBlockEnd
  0
ENDSEC
  0
SECTION
  2
ENTITIES
  0
LWPOLYLINE
  5
100
100
AcDbEntity
  8
0
 62
7
100
AcDbPolyline
 90
236
 70
0
 10
65.422809
 20
34.571254
 30
0.0
 10
90.187134
 20
34.571254
 30
0.0
 10
90.187134
 20
28.606334
 30
0.0
 10
9.365379
 20
28.606334
 30
0.0
 10
9.365379
 20
34.908884
 30
0.0
 10
58.894029
 20
34.908884
 30
0.0
 10
76.904449
 20
52.916194
 30
0.0
 10
90.468545
 20
39.354444
 30
0.0
 10
90.468545
 20
35.133984
 30
0.0
 10
90.524835
 20
47.063814
 30
0.0
 10
87.485569
 20
59.331294
 30
0.0
 10
84.446319
 20
64.958574
 30
0.0
 10
75.215969
 20
61.919844
 30
0.0
 10
57.543249
 20
59.894024
 30
0.0
 10
49.663699
 20
59.668924
 30
0.0
 10
30.302499
 20
61.132024
 30
0.0
 10
15.781589
 20
64.170754
 30
0.0
 10
10.941289
 20
53.929104
 30
0.0
 10
9.365379
 20
35.246524
 30
0.0
 10
14.993629
 20
35.246524
 30
0.0
 10
14.993629
 20
50.777824
 30
0.0
 10
20.284189
 20
50.777824
 30
0.0
 10
20.284189
 20
54.716924
 30
0.0
 10
18.483149
 20
54.716924
 30
0.0
 10
18.483149
 20
57.868204
 30
0.0
 10
18.483149
 20
54.829464
 30
0.0
 10
16.682109
 20
54.829464
 30
0.0
 10
16.682109
 20
50.777824
 30
0.0
 10
22.310369
 20
50.777824
 30
0.0
 10
22.310369
 20
45.488184
 30
0.0
 10
19.496239
 20
44.250174
 30
0.0
 10
19.496239
 20
35.359074
 30
0.0
 10
28.388879
 20
35.359074
 30
0.0
 10
28.388879
 20
47.964184
 30
0.0
 10
22.197799
 20
45.375634
 30
0.0
 10
25.011939
 20
46.613634
 30
0.0
 10
25.011939
 20
55.842374
 30
0.0
 10
34.354839
 20
55.842374
 30
0.0
 10
34.354839
 20
46.726184
 30
0.0
 10
34.354839
 20
34.796344
 30
0.0
 10
34.354839
 20
37.402334
 30
0.0
 10
43.698749
 20
37.402334
 30
0.0
 10
34.306479
 20
37.402334
 30
0.0
 10
34.306479
 20
39.590834
 30
0.0
 10
43.698749
 20
39.590834
 30
0.0
 10
34.465669
 20
39.590834
 30
0.0
 10
34.465669
 20
41.819124
 30
0.0
 10
43.619159
 20
41.819124
 30
0.0
 10
34.306479
 20
41.819124
 30
0.0
 10
34.306479
 20
44.007624
 30
0.0
 10
43.380369
 20
44.007624
 30
0.0
 10
34.266679
 20
44.007624
 30
0.0
 10
34.266679
 20
46.792984
 30
0.0
 10
43.499759
 20
46.792984
 30
0.0
 10
43.499759
 20
34.975084
 30
0.0
 10
50.106199
 20
34.975084
 30
0.0
 10
64.711979
 20
49.578344
 30
0.0
 10
69.069839
 20
45.221244
 30
0.0
 10
64.771679
 20
49.518654
 30
0.0
 10
61.567959
 20
46.315494
 30
0.0
 10
59.737259
 20
49.061064
 30
0.0
 10
55.518689
 20
53.199314
 30
0.0
 10
50.384779
 20
54.671574
 30
0.0
 10
45.887629
 20
53.835974
 30
0.0
 10
41.390479
 20
50.732284
 30
0.0
 10
39.639379
 20
46.952144
 30
0.0
 10
41.549669
 20
50.931234
 30
0.0
 10
46.046819
 20
53.955344
 30
0.0
 10
49.947009
 20
54.751164
 30
0.0
 10
49.947009
 20
84.037254
 30
0.0
 10
42.226239
 20
81.490634
 30
0.0
 10
36.176969
 20
74.487444
 30
0.0
 10
34.823849
 20
72.418314
 30
0.0
 10
30.923669
 20
62.868504
 30
0.0
 10
29.888919
 20
59.446484
 30
0.0
 10
29.411349
 20
56.183634
 30
0.0
 10
32.037999
 20
65.733444
 30
0.0
 10
36.336159
 20
74.248694
 30
0.0
 10
42.465019
 20
81.649804
 30
0.0
 10
50.026599
 20
84.037254
 30
0.0
 10
57.826969
 20
81.490634
 30
0.0
 10
64.990569
 20
73.293714
 30
0.0
 10
68.651959
 20
64.778464
 30
0.0
 10
70.960229
 20
55.387814
 30
0.0
 10
72.074569
 20
47.986704
 30
0.0
 10
69.607109
 20
61.595194
 30
0.0
 10
65.070159
 20
73.054964
 30
0.0
 10
73.666479
 20
76.079074
 30
0.0
 10
65.149759
 20
73.054964
 30
0.0
 10
49.947009
 20
71.383754
 30
0.0
 10
35.778989
 20
73.054964
 30
0.0
 10
26.705099
 20
76.079074
 30
0.0
 10
19.700689
 20
70.428764
 30
0.0
 10
15.800499
 20
64.380554
 30
0.0
 10
21.531389
 20
72.259154
 30
0.0
 10
31.640029
 20
79.660254
 30
0.0
 10
43.818149
 20
83.400604
 30
0.0
 10
50.106199
 20
84.355584
 30
0.0
 10
61.329169
 20
82.127294
 30
0.0
 10
74.940009
 20
75.522004
 30
0.0
 10
84.332289
 20
65.176374
 30
0.0
 10
74.223649
 20
75.919914
 30
0.0
 10
60.931189
 20
82.366034
 30
0.0
 10
49.867409
 20
84.355584
 30
0.0
 10
49.867409
 20
93.109574
 30
0.0
 10
40.996189
 20
92.307164
 30
0.0
 10
31.203019
 20
89.268434
 30
0.0
 10
21.522419
 20
84.091334
 30
0.0
 10
10.265909
 20
73.512044
 30
0.0
 10
3.511999
 20
60.344204
 30
0.0
 10
0.135039
 20
47.288904
 30
0.0
 10
0.135039
 20
29.169064
 30
0.0
 10
0.247609
 20
16.113764
 30
0.0
 10
9.477949
 20
16.113764
 30
0.0
 10
9.590509
 20
21.178324
 30
0.0
 10
10.490449
 20
22.854614
 30
0.0
 10
21.866939
 20
22.941014
 30
0.0
 10
21.859939
 20
19.152504
 30
0.0
 10
22.125449
 20
23.123204
 30
0.0
 10
11.001399
 20
22.941014
 30
0.0
 10
9.365209
 20
20.390504
 30
0.0
 10
9.590339
 20
11.386854
 30
0.0
 10
11.616509
 20
9.698674
 30
0.0
 10
20.621719
 20
9.698674
 30
0.0
 10
21.634809
 20
11.049224
 30
0.0
 10
21.747379
 20
14.988314
 30
0.0
 10
16.907079
 20
14.988314
 30
0.0
 10
21.972499
 20
14.988314
 30
0.0
 10
21.972499
 20
9.923764
 30
0.0
 10
20.509159
 20
9.361034
 30
0.0
 10
10.828559
 20
9.698674
 30
0.0
 10
9.027519
 20
11.611944
 30
0.0
 10
9.027519
 20
15.776134
 30
0.0
 10
0.134869
 20
15.888684
 30
0.0
 10
0.359999
 20
4.071384
 30
0.0
 10
1.373089
 20
2.045564
 30
0.0
 10
4.187219
 20
0.244834
 30
0.0
 10
41.446269
 20
0.244834
 30
0.0
 10
41.558839
 20
9.135944
 30
0.0
 10
37.844189
 20
8.910844
 30
0.0
 10
33.454149
 20
14.425584
 30
0.0
 10
26.700239
 20
14.538134
 30
0.0
 10
26.812809
 20
9.135944
 30
0.0
 10
26.812809
 20
14.538134
 30
0.0
 10
35.930589
 20
14.313044
 30
0.0
 10
37.956759
 20
15.551044
 30
0.0
 10
38.294449
 20
20.390504
 30
0.0
 10
36.859249
 20
23.133804
 30
0.0
 10
26.700239
 20
23.021254
 30
0.0
 10
26.700239
 20
18.814864
 30
0.0
 10
26.995729
 20
22.782094
 30
0.0
 10
36.366769
 20
22.936854
 30
0.0
 10
38.744709
 20
20.052864
 30
0.0
 10
38.294449
 20
15.325954
 30
0.0
 10
34.129539
 20
14.087944
 30
0.0
 10
38.632149
 20
8.798304
 30
0.0
 10
42.234229
 20
9.135944
 30
0.0
 10
44.372969
 20
10.373944
 30
0.0
 10
45.498619
 20
9.361034
 30
0.0
 10
54.391259
 20
9.473574
 30
0.0
 10
55.742039
 20
10.936674
 30
0.0
 10
55.742039
 20
14.988314
 30
0.0
 10
51.351999
 20
14.875764
 30
0.0
 10
55.404349
 20
14.875764
 30
0.0
 10
55.404349
 20
11.386854
 30
0.0
 10
53.265619
 20
9.248484
 30
0.0
 10
44.823229
 20
9.473574
 30
0.0
 10
43.585009
 20
11.611944
 30
0.0
 10
43.472449
 20
20.165414
 30
0.0
 10
45.667469
 20
23.063464
 30
0.0
 10
55.713909
 20
23.063464
 30
0.0
 10
55.742009
 20
19.265044
 30
0.0
 10
55.713909
 20
23.063464
 30
0.0
 10
45.132779
 20
22.838374
 30
0.0
 10
43.472449
 20
20.503044
 30
0.0
 10
43.922709
 20
11.161764
 30
0.0
 10
44.372969
 20
10.373944
 30
0.0
 10
42.121659
 20
9.248484
 30
0.0
 10
41.783969
 20
9.135944
 30
0.0
 10
41.558839
 20
0.132294
 30
0.0
 10
93.338784
 20
0.132294
 30
0.0
 10
97.278562
 20
1.370294
 30
0.0
 10
99.192168
 20
4.746664
 30
0.0
 10
99.079603
 20
22.866514
 30
0.0
 10
86.022059
 20
22.641414
 30
0.0
 10
86.134619
 20
17.464314
 30
0.0
 10
91.087482
 20
17.464314
 30
0.0
 10
91.200047
 20
22.528874
 30
0.0
 10
82.532539
 20
22.528874
 30
0.0
 10
82.870229
 20
20.052864
 30
0.0
 10
78.480189
 20
19.490144
 30
0.0
 10
78.480189
 20
17.351774
 30
0.0
 10
82.982799
 20
17.464314
 30
0.0
 10
78.367629
 20
17.351774
 30
0.0
 10
78.480189
 20
19.715234
 30
0.0
 10
82.532539
 20
20.052864
 30
0.0
 10
82.645099
 20
22.866514
 30
0.0
 10
78.705319
 20
22.753964
 30
0.0
 10
77.354539
 20
21.515964
 30
0.0
 10
78.817889
 20
22.866514
 30
0.0
 10
70.938329
 20
22.753964
 30
0.0
 10
60.019509
 20
22.866514
 30
0.0
 10
60.132079
 20
19.377594
 30
0.0
 10
60.019509
 20
22.866514
 30
0.0
 10
71.163459
 20
22.641414
 30
0.0
 10
72.739369
 20
19.940324
 30
0.0
 10
72.176549
 20
16.113764
 30
0.0
 10
68.912159
 20
14.200494
 30
0.0
 10
60.469769
 20
14.200494
 30
0.0
 10
60.582339
 20
9.473574
 30
0.0
 10
60.357209
 20
14.425584
 30
0.0
 10
68.799589
 20
14.087944
 30
0.0
 10
71.613719
 20
9.586124
 30
0.0
 10
72.626799
 20
8.910844
 30
0.0
 10
78.142499
 20
8.910844
 30
0.0
 10
78.255059
 20
10.824124
 30
0.0
 10
82.419969
 20
11.386854
 30
0.0
 10
82.645099
 20
13.975404
 30
0.0
 10
78.029929
 20
14.313044
 30
0.0
 10
77.579669
 20
13.075044
 30
0.0
 10
78.255059
 20
14.087944
 30
0.0
 10
82.645099
 20
14.313044
 30
0.0
 10
82.870229
 20
11.386854
 30
0.0
 10
78.029929
 20
11.386854
 30
0.0
 10
77.692239
 20
8.798304
 30
0.0
 10
91.537743
 20
8.910844
 30
0.0
 10
91.537743
 20
13.750314
 30
0.0
 10
86.134619
 20
13.525224
 30
0.0
 10
85.909489
 20
8.348124
 30
0.0
 10
99.192168
 20
8.460674
 30
0.0
 10
99.867560
 20
34.346164
 30
0.0
 10
97.728823
 20
57.755654
 30
0.0
 10
88.385919
 20
75.650404
 30
0.0
 10
69.362419
 20
89.606064
 30
0.0
 10
50.564039
 20
92.869884
 30
0.0
 10
50.676599
 20
92.869884
 30
0.0
  0
ENDSEC
  0
SECTION
  2
OBJECTS
  0
DICTIONARY
  5
C
330
0
100
AcDbDictionary
  3
ACAD_GROUP
350
D
  3
ACAD_MLINESTYLE
350
17
  0
DICTIONARY
  5
D
330
C
100
AcDbDictionary
  0
DICTIONARY
  5
1A
330
C
100
AcDbDictionary
  0
DICTIONARY
  5
17
330
C
100
AcDbDictionary
  3
STANDARD
350
18
  0
DICTIONARY
  5
19
330
C
100
AcDbDictionary
  0
ENDSEC
  0
EOF
